<svg xmlns="http://www.w3.org/2000/svg" width="960" height="300" viewBox="0 0 960 300" role="img" aria-label="MixaDoD.exe — welcome back, internet angel">
<title>MixaDoD.exe — welcome back, internet angel</title>
<defs>
<linearGradient id="tb" x1="0" x2="1"><stop offset="0" stop-color="#ff5cad"/><stop offset=".55" stop-color="#b36bff"/><stop offset="1" stop-color="#4fe3ff"/></linearGradient>
<linearGradient id="nm" gradientUnits="userSpaceOnUse" x1="275" x2="685" y1="74" y2="144"><stop offset="0" stop-color="#fff0f8"/><stop offset=".45" stop-color="#ffb3d9"/><stop offset="1" stop-color="#9fe8ff"/></linearGradient>
<linearGradient id="bg" x1="0" x2="0" y1="0" y2="1"><stop offset="0" stop-color="#241432"/><stop offset="1" stop-color="#3d2257"/></linearGradient>
<clipPath id="type"><rect x="307.2" y="158" height="30" width="0"><animate attributeName="width" begin=".4s" dur="2.6s" values="0.0;10.8;21.6;32.4;43.2;54.0;64.8;75.6;86.4;97.2;108.0;118.8;129.6;140.4;151.2;162.0;172.8;183.6;194.4;205.2;216.0;226.8;237.6;248.4;259.2;270.0;280.8;291.6;302.4;313.2;324.0;334.8;345.6" keyTimes="0.000;0.031;0.062;0.094;0.125;0.156;0.188;0.219;0.250;0.281;0.312;0.344;0.375;0.406;0.438;0.469;0.500;0.531;0.562;0.594;0.625;0.656;0.688;0.719;0.750;0.781;0.812;0.844;0.875;0.906;0.938;0.969;1.000" calcMode="discrete" fill="freeze"/></rect></clipPath>
</defs>
<style>
.t{font:700 15px 'JetBrains Mono','Cascadia Mono','DejaVu Sans Mono',Consolas,Menlo,monospace;fill:#fff}
.tag{font:18px 'JetBrains Mono','Cascadia Mono','DejaVu Sans Mono',Consolas,Menlo,monospace;fill:#ffb3d9}
.sb{font:12px 'JetBrains Mono','Cascadia Mono','DejaVu Sans Mono',Consolas,Menlo,monospace;fill:#e9d8ff}
.live{font:700 13px 'JetBrains Mono','Cascadia Mono','DejaVu Sans Mono',Consolas,Menlo,monospace;fill:#ff6b8f}
.tw{animation:tw 3.2s steps(2) infinite}
.fl{animation:fl 4s ease-in-out infinite}
.dot{animation:bl 1.2s steps(1) infinite}
.cur{animation:bl 1s steps(1) infinite}
@keyframes tw{0%,100%{opacity:1}50%{opacity:.15}}
@keyframes fl{0%,100%{transform:translateY(0)}50%{transform:translateY(-6px)}}
@keyframes bl{0%{opacity:1}50%{opacity:0}}
@media (prefers-reduced-motion:reduce){.tw,.fl,.dot,.cur{animation:none}}
</style>
<rect x="1" y="1" width="958" height="298" fill="#2b1840" stroke="#120a1c" stroke-width="2"/>
<path d="M4 296V4H956" stroke="#ffb3d9" stroke-width="2" fill="none"/>
<path d="M956 4V296H4" stroke="#120a1c" stroke-width="2" fill="none"/>
<rect x="10" y="10" width="940" height="28" fill="url(#tb)"/>
<g transform="translate(18,15)"><rect x="2" y="0" width="2" height="2" fill="#3b1f4f"/><rect x="4" y="0" width="2" height="2" fill="#3b1f4f"/><rect x="12" y="0" width="2" height="2" fill="#3b1f4f"/><rect x="14" y="0" width="2" height="2" fill="#3b1f4f"/><rect x="0" y="2" width="2" height="2" fill="#3b1f4f"/><rect x="2" y="2" width="2" height="2" fill="#fff"/><rect x="4" y="2" width="2" height="2" fill="#fff"/><rect x="6" y="2" width="2" height="2" fill="#3b1f4f"/><rect x="10" y="2" width="2" height="2" fill="#3b1f4f"/><rect x="12" y="2" width="2" height="2" fill="#fff"/><rect x="14" y="2" width="2" height="2" fill="#fff"/><rect x="16" y="2" width="2" height="2" fill="#3b1f4f"/><rect x="0" y="4" width="2" height="2" fill="#3b1f4f"/><rect x="2" y="4" width="2" height="2" fill="#fff"/><rect x="4" y="4" width="2" height="2" fill="#ffd6ec"/><rect x="6" y="4" width="2" height="2" fill="#fff"/><rect x="8" y="4" width="2" height="2" fill="#3b1f4f"/><rect x="10" y="4" width="2" height="2" fill="#fff"/><rect x="12" y="4" width="2" height="2" fill="#fff"/><rect x="14" y="4" width="2" height="2" fill="#fff"/><rect x="16" y="4" width="2" height="2" fill="#3b1f4f"/><rect x="0" y="6" width="2" height="2" fill="#3b1f4f"/><rect x="2" y="6" width="2" height="2" fill="#fff"/><rect x="4" y="6" width="2" height="2" fill="#fff"/><rect x="6" y="6" width="2" height="2" fill="#fff"/><rect x="8" y="6" width="2" height="2" fill="#fff"/><rect x="10" y="6" width="2" height="2" fill="#fff"/><rect x="12" y="6" width="2" height="2" fill="#fff"/><rect x="14" y="6" width="2" height="2" fill="#fff"/><rect x="16" y="6" width="2" height="2" fill="#3b1f4f"/><rect x="2" y="8" width="2" height="2" fill="#3b1f4f"/><rect x="4" y="8" width="2" height="2" fill="#fff"/><rect x="6" y="8" width="2" height="2" fill="#fff"/><rect x="8" y="8" width="2" height="2" fill="#fff"/><rect x="10" y="8" width="2" height="2" fill="#fff"/><rect x="12" y="8" width="2" height="2" fill="#fff"/><rect x="14" y="8" width="2" height="2" fill="#3b1f4f"/><rect x="4" y="10" width="2" height="2" fill="#3b1f4f"/><rect x="6" y="10" width="2" height="2" fill="#fff"/><rect x="8" y="10" width="2" height="2" fill="#fff"/><rect x="10" y="10" width="2" height="2" fill="#fff"/><rect x="12" y="10" width="2" height="2" fill="#3b1f4f"/><rect x="6" y="12" width="2" height="2" fill="#3b1f4f"/><rect x="8" y="12" width="2" height="2" fill="#fff"/><rect x="10" y="12" width="2" height="2" fill="#3b1f4f"/><rect x="8" y="14" width="2" height="2" fill="#3b1f4f"/></g>
<text x="42" y="30" class="t">MixaDoD.exe</text>
<g font-family="'JetBrains Mono','Cascadia Mono','DejaVu Sans Mono',Consolas,Menlo,monospace" font-size="14" font-weight="700" text-anchor="middle">
<rect x="864" y="14" width="24" height="20" fill="#e9d8ff" stroke="#3b1f4f"/><text x="876" y="29" fill="#3b1f4f">_</text><rect x="892" y="14" width="24" height="20" fill="#e9d8ff" stroke="#3b1f4f"/><text x="904" y="29" fill="#3b1f4f">□</text><rect x="920" y="14" width="24" height="20" fill="#e9d8ff" stroke="#3b1f4f"/><text x="932" y="29" fill="#3b1f4f">×</text>
</g>
<rect x="14" y="42" width="932" height="218" fill="url(#bg)"/>
<g shape-rendering="crispEdges"><rect x="14" y="170" width="932" height="18" fill="#ffffff" opacity="0.025"/><rect x="14" y="196" width="932" height="26" fill="#ffffff" opacity="0.035"/><rect x="14" y="230" width="932" height="34" fill="#ffffff" opacity="0.05"/><g class="tw" style="animation-delay:0s" transform="translate(70,70)"><rect x="6" y="0" width="3" height="3" fill="#fff4fb"/><rect x="6" y="3" width="3" height="3" fill="#fff4fb"/><rect x="0" y="6" width="3" height="3" fill="#fff4fb"/><rect x="3" y="6" width="3" height="3" fill="#fff4fb"/><rect x="6" y="6" width="3" height="3" fill="#fff4fb"/><rect x="9" y="6" width="3" height="3" fill="#fff4fb"/><rect x="12" y="6" width="3" height="3" fill="#fff4fb"/><rect x="6" y="9" width="3" height="3" fill="#fff4fb"/><rect x="6" y="12" width="3" height="3" fill="#fff4fb"/></g><g class="tw" style="animation-delay:1.1s" transform="translate(190,220)"><rect x="6" y="0" width="3" height="3" fill="#fff4fb"/><rect x="6" y="3" width="3" height="3" fill="#fff4fb"/><rect x="0" y="6" width="3" height="3" fill="#fff4fb"/><rect x="3" y="6" width="3" height="3" fill="#fff4fb"/><rect x="6" y="6" width="3" height="3" fill="#fff4fb"/><rect x="9" y="6" width="3" height="3" fill="#fff4fb"/><rect x="12" y="6" width="3" height="3" fill="#fff4fb"/><rect x="6" y="9" width="3" height="3" fill="#fff4fb"/><rect x="6" y="12" width="3" height="3" fill="#fff4fb"/></g><g class="tw" style="animation-delay:2.3s" transform="translate(180,60)"><rect x="6" y="0" width="3" height="3" fill="#fff4fb"/><rect x="6" y="3" width="3" height="3" fill="#fff4fb"/><rect x="0" y="6" width="3" height="3" fill="#fff4fb"/><rect x="3" y="6" width="3" height="3" fill="#fff4fb"/><rect x="6" y="6" width="3" height="3" fill="#fff4fb"/><rect x="9" y="6" width="3" height="3" fill="#fff4fb"/><rect x="12" y="6" width="3" height="3" fill="#fff4fb"/><rect x="6" y="9" width="3" height="3" fill="#fff4fb"/><rect x="6" y="12" width="3" height="3" fill="#fff4fb"/></g><g class="tw" style="animation-delay:0.6s" transform="translate(790,60)"><rect x="6" y="0" width="3" height="3" fill="#fff4fb"/><rect x="6" y="3" width="3" height="3" fill="#fff4fb"/><rect x="0" y="6" width="3" height="3" fill="#fff4fb"/><rect x="3" y="6" width="3" height="3" fill="#fff4fb"/><rect x="6" y="6" width="3" height="3" fill="#fff4fb"/><rect x="9" y="6" width="3" height="3" fill="#fff4fb"/><rect x="12" y="6" width="3" height="3" fill="#fff4fb"/><rect x="6" y="9" width="3" height="3" fill="#fff4fb"/><rect x="6" y="12" width="3" height="3" fill="#fff4fb"/></g><g class="tw" style="animation-delay:1.7s" transform="translate(770,200)"><rect x="6" y="0" width="3" height="3" fill="#fff4fb"/><rect x="6" y="3" width="3" height="3" fill="#fff4fb"/><rect x="0" y="6" width="3" height="3" fill="#fff4fb"/><rect x="3" y="6" width="3" height="3" fill="#fff4fb"/><rect x="6" y="6" width="3" height="3" fill="#fff4fb"/><rect x="9" y="6" width="3" height="3" fill="#fff4fb"/><rect x="12" y="6" width="3" height="3" fill="#fff4fb"/><rect x="6" y="9" width="3" height="3" fill="#fff4fb"/><rect x="6" y="12" width="3" height="3" fill="#fff4fb"/></g><g class="tw" style="animation-delay:2.9s" transform="translate(880,100)"><rect x="6" y="0" width="3" height="3" fill="#fff4fb"/><rect x="6" y="3" width="3" height="3" fill="#fff4fb"/><rect x="0" y="6" width="3" height="3" fill="#fff4fb"/><rect x="3" y="6" width="3" height="3" fill="#fff4fb"/><rect x="6" y="6" width="3" height="3" fill="#fff4fb"/><rect x="9" y="6" width="3" height="3" fill="#fff4fb"/><rect x="12" y="6" width="3" height="3" fill="#fff4fb"/><rect x="6" y="9" width="3" height="3" fill="#fff4fb"/><rect x="6" y="12" width="3" height="3" fill="#fff4fb"/></g><g class="tw" style="animation-delay:3.4s" transform="translate(120,150)"><rect x="6" y="0" width="3" height="3" fill="#fff4fb"/><rect x="6" y="3" width="3" height="3" fill="#fff4fb"/><rect x="0" y="6" width="3" height="3" fill="#fff4fb"/><rect x="3" y="6" width="3" height="3" fill="#fff4fb"/><rect x="6" y="6" width="3" height="3" fill="#fff4fb"/><rect x="9" y="6" width="3" height="3" fill="#fff4fb"/><rect x="12" y="6" width="3" height="3" fill="#fff4fb"/><rect x="6" y="9" width="3" height="3" fill="#fff4fb"/><rect x="6" y="12" width="3" height="3" fill="#fff4fb"/></g><g class="tw" style="animation-delay:0.3s" transform="translate(850,230)"><rect x="6" y="0" width="3" height="3" fill="#fff4fb"/><rect x="6" y="3" width="3" height="3" fill="#fff4fb"/><rect x="0" y="6" width="3" height="3" fill="#fff4fb"/><rect x="3" y="6" width="3" height="3" fill="#fff4fb"/><rect x="6" y="6" width="3" height="3" fill="#fff4fb"/><rect x="9" y="6" width="3" height="3" fill="#fff4fb"/><rect x="12" y="6" width="3" height="3" fill="#fff4fb"/><rect x="6" y="9" width="3" height="3" fill="#fff4fb"/><rect x="6" y="12" width="3" height="3" fill="#fff4fb"/></g><g class="tw" style="animation-delay:2.0s" transform="translate(600,232)"><rect x="6" y="0" width="3" height="3" fill="#fff4fb"/><rect x="6" y="3" width="3" height="3" fill="#fff4fb"/><rect x="0" y="6" width="3" height="3" fill="#fff4fb"/><rect x="3" y="6" width="3" height="3" fill="#fff4fb"/><rect x="6" y="6" width="3" height="3" fill="#fff4fb"/><rect x="9" y="6" width="3" height="3" fill="#fff4fb"/><rect x="12" y="6" width="3" height="3" fill="#fff4fb"/><rect x="6" y="9" width="3" height="3" fill="#fff4fb"/><rect x="6" y="12" width="3" height="3" fill="#fff4fb"/></g><g class="tw" style="animation-delay:3.0s" transform="translate(330,236)"><rect x="6" y="0" width="3" height="3" fill="#fff4fb"/><rect x="6" y="3" width="3" height="3" fill="#fff4fb"/><rect x="0" y="6" width="3" height="3" fill="#fff4fb"/><rect x="3" y="6" width="3" height="3" fill="#fff4fb"/><rect x="6" y="6" width="3" height="3" fill="#fff4fb"/><rect x="9" y="6" width="3" height="3" fill="#fff4fb"/><rect x="12" y="6" width="3" height="3" fill="#fff4fb"/><rect x="6" y="9" width="3" height="3" fill="#fff4fb"/><rect x="6" y="12" width="3" height="3" fill="#fff4fb"/></g><g class="fl" style="animation-delay:0s"><g transform="translate(36,196)"><rect x="4" y="0" width="4" height="4" fill="#3b1f4f"/><rect x="8" y="0" width="4" height="4" fill="#3b1f4f"/><rect x="24" y="0" width="4" height="4" fill="#3b1f4f"/><rect x="28" y="0" width="4" height="4" fill="#3b1f4f"/><rect x="0" y="4" width="4" height="4" fill="#3b1f4f"/><rect x="4" y="4" width="4" height="4" fill="#ff5cad"/><rect x="8" y="4" width="4" height="4" fill="#ff5cad"/><rect x="12" y="4" width="4" height="4" fill="#3b1f4f"/><rect x="20" y="4" width="4" height="4" fill="#3b1f4f"/><rect x="24" y="4" width="4" height="4" fill="#ff5cad"/><rect x="28" y="4" width="4" height="4" fill="#ff5cad"/><rect x="32" y="4" width="4" height="4" fill="#3b1f4f"/><rect x="0" y="8" width="4" height="4" fill="#3b1f4f"/><rect x="4" y="8" width="4" height="4" fill="#ff5cad"/><rect x="8" y="8" width="4" height="4" fill="#ffd6ec"/><rect x="12" y="8" width="4" height="4" fill="#ff5cad"/><rect x="16" y="8" width="4" height="4" fill="#3b1f4f"/><rect x="20" y="8" width="4" height="4" fill="#ff5cad"/><rect x="24" y="8" width="4" height="4" fill="#ff5cad"/><rect x="28" y="8" width="4" height="4" fill="#ff5cad"/><rect x="32" y="8" width="4" height="4" fill="#3b1f4f"/><rect x="0" y="12" width="4" height="4" fill="#3b1f4f"/><rect x="4" y="12" width="4" height="4" fill="#ff5cad"/><rect x="8" y="12" width="4" height="4" fill="#ff5cad"/><rect x="12" y="12" width="4" height="4" fill="#ff5cad"/><rect x="16" y="12" width="4" height="4" fill="#ff5cad"/><rect x="20" y="12" width="4" height="4" fill="#ff5cad"/><rect x="24" y="12" width="4" height="4" fill="#ff5cad"/><rect x="28" y="12" width="4" height="4" fill="#ff5cad"/><rect x="32" y="12" width="4" height="4" fill="#3b1f4f"/><rect x="4" y="16" width="4" height="4" fill="#3b1f4f"/><rect x="8" y="16" width="4" height="4" fill="#ff5cad"/><rect x="12" y="16" width="4" height="4" fill="#ff5cad"/><rect x="16" y="16" width="4" height="4" fill="#ff5cad"/><rect x="20" y="16" width="4" height="4" fill="#ff5cad"/><rect x="24" y="16" width="4" height="4" fill="#ff5cad"/><rect x="28" y="16" width="4" height="4" fill="#3b1f4f"/><rect x="8" y="20" width="4" height="4" fill="#3b1f4f"/><rect x="12" y="20" width="4" height="4" fill="#ff5cad"/><rect x="16" y="20" width="4" height="4" fill="#ff5cad"/><rect x="20" y="20" width="4" height="4" fill="#ff5cad"/><rect x="24" y="20" width="4" height="4" fill="#3b1f4f"/><rect x="12" y="24" width="4" height="4" fill="#3b1f4f"/><rect x="16" y="24" width="4" height="4" fill="#ff5cad"/><rect x="20" y="24" width="4" height="4" fill="#3b1f4f"/><rect x="16" y="28" width="4" height="4" fill="#3b1f4f"/></g></g><g class="fl" style="animation-delay:1.5s"><g transform="translate(896,150)"><rect x="4" y="0" width="4" height="4" fill="#3b1f4f"/><rect x="8" y="0" width="4" height="4" fill="#3b1f4f"/><rect x="24" y="0" width="4" height="4" fill="#3b1f4f"/><rect x="28" y="0" width="4" height="4" fill="#3b1f4f"/><rect x="0" y="4" width="4" height="4" fill="#3b1f4f"/><rect x="4" y="4" width="4" height="4" fill="#ff5cad"/><rect x="8" y="4" width="4" height="4" fill="#ff5cad"/><rect x="12" y="4" width="4" height="4" fill="#3b1f4f"/><rect x="20" y="4" width="4" height="4" fill="#3b1f4f"/><rect x="24" y="4" width="4" height="4" fill="#ff5cad"/><rect x="28" y="4" width="4" height="4" fill="#ff5cad"/><rect x="32" y="4" width="4" height="4" fill="#3b1f4f"/><rect x="0" y="8" width="4" height="4" fill="#3b1f4f"/><rect x="4" y="8" width="4" height="4" fill="#ff5cad"/><rect x="8" y="8" width="4" height="4" fill="#ffd6ec"/><rect x="12" y="8" width="4" height="4" fill="#ff5cad"/><rect x="16" y="8" width="4" height="4" fill="#3b1f4f"/><rect x="20" y="8" width="4" height="4" fill="#ff5cad"/><rect x="24" y="8" width="4" height="4" fill="#ff5cad"/><rect x="28" y="8" width="4" height="4" fill="#ff5cad"/><rect x="32" y="8" width="4" height="4" fill="#3b1f4f"/><rect x="0" y="12" width="4" height="4" fill="#3b1f4f"/><rect x="4" y="12" width="4" height="4" fill="#ff5cad"/><rect x="8" y="12" width="4" height="4" fill="#ff5cad"/><rect x="12" y="12" width="4" height="4" fill="#ff5cad"/><rect x="16" y="12" width="4" height="4" fill="#ff5cad"/><rect x="20" y="12" width="4" height="4" fill="#ff5cad"/><rect x="24" y="12" width="4" height="4" fill="#ff5cad"/><rect x="28" y="12" width="4" height="4" fill="#ff5cad"/><rect x="32" y="12" width="4" height="4" fill="#3b1f4f"/><rect x="4" y="16" width="4" height="4" fill="#3b1f4f"/><rect x="8" y="16" width="4" height="4" fill="#ff5cad"/><rect x="12" y="16" width="4" height="4" fill="#ff5cad"/><rect x="16" y="16" width="4" height="4" fill="#ff5cad"/><rect x="20" y="16" width="4" height="4" fill="#ff5cad"/><rect x="24" y="16" width="4" height="4" fill="#ff5cad"/><rect x="28" y="16" width="4" height="4" fill="#3b1f4f"/><rect x="8" y="20" width="4" height="4" fill="#3b1f4f"/><rect x="12" y="20" width="4" height="4" fill="#ff5cad"/><rect x="16" y="20" width="4" height="4" fill="#ff5cad"/><rect x="20" y="20" width="4" height="4" fill="#ff5cad"/><rect x="24" y="20" width="4" height="4" fill="#3b1f4f"/><rect x="12" y="24" width="4" height="4" fill="#3b1f4f"/><rect x="16" y="24" width="4" height="4" fill="#ff5cad"/><rect x="20" y="24" width="4" height="4" fill="#3b1f4f"/><rect x="16" y="28" width="4" height="4" fill="#3b1f4f"/></g></g><g class="fl" style="animation-delay:2.6s"><g transform="translate(250,118)"><rect x="3" y="0" width="3" height="3" fill="#3b1f4f"/><rect x="6" y="0" width="3" height="3" fill="#3b1f4f"/><rect x="18" y="0" width="3" height="3" fill="#3b1f4f"/><rect x="21" y="0" width="3" height="3" fill="#3b1f4f"/><rect x="0" y="3" width="3" height="3" fill="#3b1f4f"/><rect x="3" y="3" width="3" height="3" fill="#ff5cad"/><rect x="6" y="3" width="3" height="3" fill="#ff5cad"/><rect x="9" y="3" width="3" height="3" fill="#3b1f4f"/><rect x="15" y="3" width="3" height="3" fill="#3b1f4f"/><rect x="18" y="3" width="3" height="3" fill="#ff5cad"/><rect x="21" y="3" width="3" height="3" fill="#ff5cad"/><rect x="24" y="3" width="3" height="3" fill="#3b1f4f"/><rect x="0" y="6" width="3" height="3" fill="#3b1f4f"/><rect x="3" y="6" width="3" height="3" fill="#ff5cad"/><rect x="6" y="6" width="3" height="3" fill="#ffd6ec"/><rect x="9" y="6" width="3" height="3" fill="#ff5cad"/><rect x="12" y="6" width="3" height="3" fill="#3b1f4f"/><rect x="15" y="6" width="3" height="3" fill="#ff5cad"/><rect x="18" y="6" width="3" height="3" fill="#ff5cad"/><rect x="21" y="6" width="3" height="3" fill="#ff5cad"/><rect x="24" y="6" width="3" height="3" fill="#3b1f4f"/><rect x="0" y="9" width="3" height="3" fill="#3b1f4f"/><rect x="3" y="9" width="3" height="3" fill="#ff5cad"/><rect x="6" y="9" width="3" height="3" fill="#ff5cad"/><rect x="9" y="9" width="3" height="3" fill="#ff5cad"/><rect x="12" y="9" width="3" height="3" fill="#ff5cad"/><rect x="15" y="9" width="3" height="3" fill="#ff5cad"/><rect x="18" y="9" width="3" height="3" fill="#ff5cad"/><rect x="21" y="9" width="3" height="3" fill="#ff5cad"/><rect x="24" y="9" width="3" height="3" fill="#3b1f4f"/><rect x="3" y="12" width="3" height="3" fill="#3b1f4f"/><rect x="6" y="12" width="3" height="3" fill="#ff5cad"/><rect x="9" y="12" width="3" height="3" fill="#ff5cad"/><rect x="12" y="12" width="3" height="3" fill="#ff5cad"/><rect x="15" y="12" width="3" height="3" fill="#ff5cad"/><rect x="18" y="12" width="3" height="3" fill="#ff5cad"/><rect x="21" y="12" width="3" height="3" fill="#3b1f4f"/><rect x="6" y="15" width="3" height="3" fill="#3b1f4f"/><rect x="9" y="15" width="3" height="3" fill="#ff5cad"/><rect x="12" y="15" width="3" height="3" fill="#ff5cad"/><rect x="15" y="15" width="3" height="3" fill="#ff5cad"/><rect x="18" y="15" width="3" height="3" fill="#3b1f4f"/><rect x="9" y="18" width="3" height="3" fill="#3b1f4f"/><rect x="12" y="18" width="3" height="3" fill="#ff5cad"/><rect x="15" y="18" width="3" height="3" fill="#3b1f4f"/><rect x="12" y="21" width="3" height="3" fill="#3b1f4f"/></g></g><g class="fl" style="animation-delay:0.9s"><g transform="translate(700,128)"><rect x="3" y="0" width="3" height="3" fill="#3b1f4f"/><rect x="6" y="0" width="3" height="3" fill="#3b1f4f"/><rect x="18" y="0" width="3" height="3" fill="#3b1f4f"/><rect x="21" y="0" width="3" height="3" fill="#3b1f4f"/><rect x="0" y="3" width="3" height="3" fill="#3b1f4f"/><rect x="3" y="3" width="3" height="3" fill="#ff5cad"/><rect x="6" y="3" width="3" height="3" fill="#ff5cad"/><rect x="9" y="3" width="3" height="3" fill="#3b1f4f"/><rect x="15" y="3" width="3" height="3" fill="#3b1f4f"/><rect x="18" y="3" width="3" height="3" fill="#ff5cad"/><rect x="21" y="3" width="3" height="3" fill="#ff5cad"/><rect x="24" y="3" width="3" height="3" fill="#3b1f4f"/><rect x="0" y="6" width="3" height="3" fill="#3b1f4f"/><rect x="3" y="6" width="3" height="3" fill="#ff5cad"/><rect x="6" y="6" width="3" height="3" fill="#ffd6ec"/><rect x="9" y="6" width="3" height="3" fill="#ff5cad"/><rect x="12" y="6" width="3" height="3" fill="#3b1f4f"/><rect x="15" y="6" width="3" height="3" fill="#ff5cad"/><rect x="18" y="6" width="3" height="3" fill="#ff5cad"/><rect x="21" y="6" width="3" height="3" fill="#ff5cad"/><rect x="24" y="6" width="3" height="3" fill="#3b1f4f"/><rect x="0" y="9" width="3" height="3" fill="#3b1f4f"/><rect x="3" y="9" width="3" height="3" fill="#ff5cad"/><rect x="6" y="9" width="3" height="3" fill="#ff5cad"/><rect x="9" y="9" width="3" height="3" fill="#ff5cad"/><rect x="12" y="9" width="3" height="3" fill="#ff5cad"/><rect x="15" y="9" width="3" height="3" fill="#ff5cad"/><rect x="18" y="9" width="3" height="3" fill="#ff5cad"/><rect x="21" y="9" width="3" height="3" fill="#ff5cad"/><rect x="24" y="9" width="3" height="3" fill="#3b1f4f"/><rect x="3" y="12" width="3" height="3" fill="#3b1f4f"/><rect x="6" y="12" width="3" height="3" fill="#ff5cad"/><rect x="9" y="12" width="3" height="3" fill="#ff5cad"/><rect x="12" y="12" width="3" height="3" fill="#ff5cad"/><rect x="15" y="12" width="3" height="3" fill="#ff5cad"/><rect x="18" y="12" width="3" height="3" fill="#ff5cad"/><rect x="21" y="12" width="3" height="3" fill="#3b1f4f"/><rect x="6" y="15" width="3" height="3" fill="#3b1f4f"/><rect x="9" y="15" width="3" height="3" fill="#ff5cad"/><rect x="12" y="15" width="3" height="3" fill="#ff5cad"/><rect x="15" y="15" width="3" height="3" fill="#ff5cad"/><rect x="18" y="15" width="3" height="3" fill="#3b1f4f"/><rect x="9" y="18" width="3" height="3" fill="#3b1f4f"/><rect x="12" y="18" width="3" height="3" fill="#ff5cad"/><rect x="15" y="18" width="3" height="3" fill="#3b1f4f"/><rect x="12" y="21" width="3" height="3" fill="#3b1f4f"/></g></g></g>
<g fill="#120a1c" shape-rendering="crispEdges"><rect x="279" y="78" width="10" height="10"/><rect x="319" y="78" width="10" height="10"/><rect x="279" y="88" width="10" height="10"/><rect x="289" y="88" width="10" height="10"/><rect x="309" y="88" width="10" height="10"/><rect x="319" y="88" width="10" height="10"/><rect x="279" y="98" width="10" height="10"/><rect x="299" y="98" width="10" height="10"/><rect x="319" y="98" width="10" height="10"/><rect x="279" y="108" width="10" height="10"/><rect x="299" y="108" width="10" height="10"/><rect x="319" y="108" width="10" height="10"/><rect x="279" y="118" width="10" height="10"/><rect x="319" y="118" width="10" height="10"/><rect x="279" y="128" width="10" height="10"/><rect x="319" y="128" width="10" height="10"/><rect x="279" y="138" width="10" height="10"/><rect x="319" y="138" width="10" height="10"/><rect x="339" y="78" width="10" height="10"/><rect x="349" y="78" width="10" height="10"/><rect x="359" y="78" width="10" height="10"/><rect x="369" y="78" width="10" height="10"/><rect x="379" y="78" width="10" height="10"/><rect x="359" y="88" width="10" height="10"/><rect x="359" y="98" width="10" height="10"/><rect x="359" y="108" width="10" height="10"/><rect x="359" y="118" width="10" height="10"/><rect x="359" y="128" width="10" height="10"/><rect x="339" y="138" width="10" height="10"/><rect x="349" y="138" width="10" height="10"/><rect x="359" y="138" width="10" height="10"/><rect x="369" y="138" width="10" height="10"/><rect x="379" y="138" width="10" height="10"/><rect x="399" y="78" width="10" height="10"/><rect x="439" y="78" width="10" height="10"/><rect x="399" y="88" width="10" height="10"/><rect x="439" y="88" width="10" height="10"/><rect x="409" y="98" width="10" height="10"/><rect x="429" y="98" width="10" height="10"/><rect x="419" y="108" width="10" height="10"/><rect x="409" y="118" width="10" height="10"/><rect x="429" y="118" width="10" height="10"/><rect x="399" y="128" width="10" height="10"/><rect x="439" y="128" width="10" height="10"/><rect x="399" y="138" width="10" height="10"/><rect x="439" y="138" width="10" height="10"/><rect x="469" y="78" width="10" height="10"/><rect x="479" y="78" width="10" height="10"/><rect x="489" y="78" width="10" height="10"/><rect x="459" y="88" width="10" height="10"/><rect x="499" y="88" width="10" height="10"/><rect x="459" y="98" width="10" height="10"/><rect x="499" y="98" width="10" height="10"/><rect x="459" y="108" width="10" height="10"/><rect x="469" y="108" width="10" height="10"/><rect x="479" y="108" width="10" height="10"/><rect x="489" y="108" width="10" height="10"/><rect x="499" y="108" width="10" height="10"/><rect x="459" y="118" width="10" height="10"/><rect x="499" y="118" width="10" height="10"/><rect x="459" y="128" width="10" height="10"/><rect x="499" y="128" width="10" height="10"/><rect x="459" y="138" width="10" height="10"/><rect x="499" y="138" width="10" height="10"/><rect x="519" y="78" width="10" height="10"/><rect x="529" y="78" width="10" height="10"/><rect x="539" y="78" width="10" height="10"/><rect x="549" y="78" width="10" height="10"/><rect x="519" y="88" width="10" height="10"/><rect x="559" y="88" width="10" height="10"/><rect x="519" y="98" width="10" height="10"/><rect x="559" y="98" width="10" height="10"/><rect x="519" y="108" width="10" height="10"/><rect x="559" y="108" width="10" height="10"/><rect x="519" y="118" width="10" height="10"/><rect x="559" y="118" width="10" height="10"/><rect x="519" y="128" width="10" height="10"/><rect x="559" y="128" width="10" height="10"/><rect x="519" y="138" width="10" height="10"/><rect x="529" y="138" width="10" height="10"/><rect x="539" y="138" width="10" height="10"/><rect x="549" y="138" width="10" height="10"/><rect x="589" y="78" width="10" height="10"/><rect x="599" y="78" width="10" height="10"/><rect x="609" y="78" width="10" height="10"/><rect x="579" y="88" width="10" height="10"/><rect x="619" y="88" width="10" height="10"/><rect x="579" y="98" width="10" height="10"/><rect x="619" y="98" width="10" height="10"/><rect x="579" y="108" width="10" height="10"/><rect x="619" y="108" width="10" height="10"/><rect x="579" y="118" width="10" height="10"/><rect x="619" y="118" width="10" height="10"/><rect x="579" y="128" width="10" height="10"/><rect x="619" y="128" width="10" height="10"/><rect x="589" y="138" width="10" height="10"/><rect x="599" y="138" width="10" height="10"/><rect x="609" y="138" width="10" height="10"/><rect x="639" y="78" width="10" height="10"/><rect x="649" y="78" width="10" height="10"/><rect x="659" y="78" width="10" height="10"/><rect x="669" y="78" width="10" height="10"/><rect x="639" y="88" width="10" height="10"/><rect x="679" y="88" width="10" height="10"/><rect x="639" y="98" width="10" height="10"/><rect x="679" y="98" width="10" height="10"/><rect x="639" y="108" width="10" height="10"/><rect x="679" y="108" width="10" height="10"/><rect x="639" y="118" width="10" height="10"/><rect x="679" y="118" width="10" height="10"/><rect x="639" y="128" width="10" height="10"/><rect x="679" y="128" width="10" height="10"/><rect x="639" y="138" width="10" height="10"/><rect x="649" y="138" width="10" height="10"/><rect x="659" y="138" width="10" height="10"/><rect x="669" y="138" width="10" height="10"/></g>
<g fill="url(#nm)" shape-rendering="crispEdges"><rect x="275" y="74" width="10" height="10"/><rect x="315" y="74" width="10" height="10"/><rect x="275" y="84" width="10" height="10"/><rect x="285" y="84" width="10" height="10"/><rect x="305" y="84" width="10" height="10"/><rect x="315" y="84" width="10" height="10"/><rect x="275" y="94" width="10" height="10"/><rect x="295" y="94" width="10" height="10"/><rect x="315" y="94" width="10" height="10"/><rect x="275" y="104" width="10" height="10"/><rect x="295" y="104" width="10" height="10"/><rect x="315" y="104" width="10" height="10"/><rect x="275" y="114" width="10" height="10"/><rect x="315" y="114" width="10" height="10"/><rect x="275" y="124" width="10" height="10"/><rect x="315" y="124" width="10" height="10"/><rect x="275" y="134" width="10" height="10"/><rect x="315" y="134" width="10" height="10"/><rect x="335" y="74" width="10" height="10"/><rect x="345" y="74" width="10" height="10"/><rect x="355" y="74" width="10" height="10"/><rect x="365" y="74" width="10" height="10"/><rect x="375" y="74" width="10" height="10"/><rect x="355" y="84" width="10" height="10"/><rect x="355" y="94" width="10" height="10"/><rect x="355" y="104" width="10" height="10"/><rect x="355" y="114" width="10" height="10"/><rect x="355" y="124" width="10" height="10"/><rect x="335" y="134" width="10" height="10"/><rect x="345" y="134" width="10" height="10"/><rect x="355" y="134" width="10" height="10"/><rect x="365" y="134" width="10" height="10"/><rect x="375" y="134" width="10" height="10"/><rect x="395" y="74" width="10" height="10"/><rect x="435" y="74" width="10" height="10"/><rect x="395" y="84" width="10" height="10"/><rect x="435" y="84" width="10" height="10"/><rect x="405" y="94" width="10" height="10"/><rect x="425" y="94" width="10" height="10"/><rect x="415" y="104" width="10" height="10"/><rect x="405" y="114" width="10" height="10"/><rect x="425" y="114" width="10" height="10"/><rect x="395" y="124" width="10" height="10"/><rect x="435" y="124" width="10" height="10"/><rect x="395" y="134" width="10" height="10"/><rect x="435" y="134" width="10" height="10"/><rect x="465" y="74" width="10" height="10"/><rect x="475" y="74" width="10" height="10"/><rect x="485" y="74" width="10" height="10"/><rect x="455" y="84" width="10" height="10"/><rect x="495" y="84" width="10" height="10"/><rect x="455" y="94" width="10" height="10"/><rect x="495" y="94" width="10" height="10"/><rect x="455" y="104" width="10" height="10"/><rect x="465" y="104" width="10" height="10"/><rect x="475" y="104" width="10" height="10"/><rect x="485" y="104" width="10" height="10"/><rect x="495" y="104" width="10" height="10"/><rect x="455" y="114" width="10" height="10"/><rect x="495" y="114" width="10" height="10"/><rect x="455" y="124" width="10" height="10"/><rect x="495" y="124" width="10" height="10"/><rect x="455" y="134" width="10" height="10"/><rect x="495" y="134" width="10" height="10"/><rect x="515" y="74" width="10" height="10"/><rect x="525" y="74" width="10" height="10"/><rect x="535" y="74" width="10" height="10"/><rect x="545" y="74" width="10" height="10"/><rect x="515" y="84" width="10" height="10"/><rect x="555" y="84" width="10" height="10"/><rect x="515" y="94" width="10" height="10"/><rect x="555" y="94" width="10" height="10"/><rect x="515" y="104" width="10" height="10"/><rect x="555" y="104" width="10" height="10"/><rect x="515" y="114" width="10" height="10"/><rect x="555" y="114" width="10" height="10"/><rect x="515" y="124" width="10" height="10"/><rect x="555" y="124" width="10" height="10"/><rect x="515" y="134" width="10" height="10"/><rect x="525" y="134" width="10" height="10"/><rect x="535" y="134" width="10" height="10"/><rect x="545" y="134" width="10" height="10"/><rect x="585" y="74" width="10" height="10"/><rect x="595" y="74" width="10" height="10"/><rect x="605" y="74" width="10" height="10"/><rect x="575" y="84" width="10" height="10"/><rect x="615" y="84" width="10" height="10"/><rect x="575" y="94" width="10" height="10"/><rect x="615" y="94" width="10" height="10"/><rect x="575" y="104" width="10" height="10"/><rect x="615" y="104" width="10" height="10"/><rect x="575" y="114" width="10" height="10"/><rect x="615" y="114" width="10" height="10"/><rect x="575" y="124" width="10" height="10"/><rect x="615" y="124" width="10" height="10"/><rect x="585" y="134" width="10" height="10"/><rect x="595" y="134" width="10" height="10"/><rect x="605" y="134" width="10" height="10"/><rect x="635" y="74" width="10" height="10"/><rect x="645" y="74" width="10" height="10"/><rect x="655" y="74" width="10" height="10"/><rect x="665" y="74" width="10" height="10"/><rect x="635" y="84" width="10" height="10"/><rect x="675" y="84" width="10" height="10"/><rect x="635" y="94" width="10" height="10"/><rect x="675" y="94" width="10" height="10"/><rect x="635" y="104" width="10" height="10"/><rect x="675" y="104" width="10" height="10"/><rect x="635" y="114" width="10" height="10"/><rect x="675" y="114" width="10" height="10"/><rect x="635" y="124" width="10" height="10"/><rect x="675" y="124" width="10" height="10"/><rect x="635" y="134" width="10" height="10"/><rect x="645" y="134" width="10" height="10"/><rect x="655" y="134" width="10" height="10"/><rect x="665" y="134" width="10" height="10"/></g>
<text x="307.2" y="180" class="tag" clip-path="url(#type)">~ welcome back, internet angel ~</text>
<rect class="cur" x="656.8" y="164" width="9" height="20" fill="#ffb3d9" opacity="0"><set attributeName="opacity" to="1" begin="3s" fill="freeze"/></rect>
<text x="480" y="226" class="sb" text-anchor="middle" opacity=".8">trying to be a programmer, idk ✧ making things by editing files</text>
<circle class="dot" cx="872" cy="62" r="5" fill="#ff3d6e"/>
<text x="882" y="67" class="live">LIVE</text>
<rect x="18" y="266" width="150" height="20" fill="#1a0f26"/><path d="M18 286V266H168" stroke="#120a1c" fill="none"/><path d="M168 266V286H18" stroke="#7a4f99" fill="none"/><text x="26" y="280" class="sb">stress 0%</text><rect x="172" y="266" width="150" height="20" fill="#1a0f26"/><path d="M172 286V266H322" stroke="#120a1c" fill="none"/><path d="M322 266V286H172" stroke="#7a4f99" fill="none"/><text x="180" y="280" class="sb">love 100%</text><rect x="326" y="266" width="200" height="20" fill="#1a0f26"/><path d="M326 286V266H526" stroke="#120a1c" fill="none"/><path d="M526 266V286H326" stroke="#7a4f99" fill="none"/><text x="334" y="280" class="sb">loc: Bulgaria</text><rect x="530" y="266" width="412" height="20" fill="#1a0f26"/><path d="M530 286V266H942" stroke="#120a1c" fill="none"/><path d="M942 266V286H530" stroke="#7a4f99" fill="none"/><text x="538" y="280" class="sb">tg @psxgld ✧ github.com/MixaDoDs</text>
</svg>
